<svg xmlns="http://www.w3.org/2000/svg" width="12" height="12" viewBox="0 0 16 16">
	<rect width="16" height="16" fill="none" />
	<path fill="#fff" fill-rule="evenodd" d="M3 1h11l1 1v5.3a3.2 3.2 0 0 0-1-.3V2H9v10.88L7.88 14H3l-1-1V2zm0 12h5V2H3zm10.379-4.998a2.5 2.5 0 0 0-1.19.348h-.03a2.51 2.51 0 0 0-.799 3.53L9 14.23l.71.71l2.35-2.36c.325.22.7.358 1.09.4a2.5 2.5 0 0 0 1.14-.13a2.5 2.5 0 0 0 1-.63a2.46 2.46 0 0 0 .58-1a2.6 2.6 0 0 0 .07-1.15a2.53 2.53 0 0 0-1.35-1.81a2.5 2.5 0 0 0-1.211-.258m.24 3.992a1.5 1.5 0 0 1-.979-.244a1.55 1.55 0 0 1-.56-.68a1.5 1.5 0 0 1-.08-.86a1.49 1.49 0 0 1 1.18-1.18a1.5 1.5 0 0 1 .86.08c.276.117.512.311.68.56a1.5 1.5 0 0 1-1.1 2.324z" clip-rule="evenodd" />
</svg>